# xmcd CD database file
# Copyright (C) 1993-1998 Ti Kan
#
# Track frame offsets:
#	182
#	21147
#	38482
#	57860
#	71420
#	81795
#	100305
#	113697
#	125965
#	147162
#	170122
#	189530
#	204887
#	235885
#
# Disc length: 3339 seconds
#
# Revision: 1
# Processed by: cddbd v1.4b41PL1 Copyright (c) Steve Scherf et al.
# Submitted via: CDValet v3.31 - Copyright (c) 1997 Greg Leichner
#
DISCID=be0d090e
DTITLE=Mick Abraham's Blodwyn Pig - Lies
DYEAR=1900
DGENRE=
TTITLE0=Lies
TTITLE1=The Night Is Gone
TTITLE2=(Deep Down) Recession Blues
TTITLE3=Latin Girl
TTITLE4=Gnatz
TTITLE5=Funny Money
TTITLE6=Witness (To  A Crime Of Love)
TTITLE7=Aby's Lean
TTITLE8=The Victim
TTITLE9=Love Won't Let You Down
TTITLE10=Dead Man's Hill
TTITLE11=Maggie Rose
TTITLE12=I Wonder Who
TTITLE13=All Said And Done
EXTD=
EXTT0=
EXTT1=
EXTT2=
EXTT3=
EXTT4=
EXTT5=
EXTT6=
EXTT7=
EXTT8=
EXTT9=
EXTT10=
EXTT11=
EXTT12=
EXTT13=
PLAYORDER=
